<svg xmlns="http://www.w3.org/2000/svg" xmlns:xlink="http://www.w3.org/1999/xlink" viewBox="0 0 204.5 31.52"><defs><style>.a{fill:#21a038;}.b{fill:url(#a);}.c{fill:url(#b);}.d{fill:url(#c);}.e{fill:url(#d);}.f{fill:url(#e);}.g{fill:url(#f);}</style><linearGradient id="a" x1="275.71" y1="825.87" x2="275.2" y2="828.29" gradientTransform="matrix(2.87, 0, 0, -4.76, -378.2, 4450.91)" gradientUnits="userSpaceOnUse"><stop offset="0.14" stop-color="#f2e913"/><stop offset="0.3" stop-color="#e7e518"/><stop offset="0.58" stop-color="#cadb26"/><stop offset="0.89" stop-color="#a3cd39"/></linearGradient><linearGradient id="b" x1="248.79" y1="779.08" x2="250.95" y2="779.58" gradientTransform="matrix(4.76, 0, 0, -2.87, -767.94, 2739.44)" gradientUnits="userSpaceOnUse"><stop offset="0.06" stop-color="#0fa8e0"/><stop offset="0.54" stop-color="#0099f9"/><stop offset="0.92" stop-color="#0291eb"/></linearGradient><linearGradient id="c" x1="250.69" y1="770.72" x2="253.13" y2="771.05" gradientTransform="matrix(4.76, 0, 0, -2.87, -767.94, 2739.44)" gradientUnits="userSpaceOnUse"><stop offset="0.12" stop-color="#a3cd39"/><stop offset="0.28" stop-color="#86c339"/><stop offset="0.87" stop-color="#21a038"/></linearGradient><linearGradient id="d" x1="249.97" y1="777.44" x2="252.02" y2="777.08" gradientTransform="matrix(4.84, 0, 0, -2.82, -785.6, 2693.45)" gradientUnits="userSpaceOnUse"><stop offset="0.06" stop-color="#0291eb"/><stop offset="0.79" stop-color="#0c8acb"/></linearGradient><linearGradient id="e" x1="250.35" y1="776.65" x2="252.7" y2="776.07" gradientTransform="matrix(4.57, 0, 0, -2.99, -729.5, 2845.61)" gradientUnits="userSpaceOnUse"><stop offset="0.13" stop-color="#f2e913"/><stop offset="0.3" stop-color="#ebe716"/><stop offset="0.53" stop-color="#d9e01f"/><stop offset="0.8" stop-color="#bbd62d"/><stop offset="0.98" stop-color="#a3cd39"/></linearGradient><linearGradient id="f" x1="272.54" y1="824.71" x2="273.16" y2="827.18" gradientTransform="matrix(2.99, 0, 0, -4.57, -402.38, 4282.11)" gradientUnits="userSpaceOnUse"><stop offset="0.07" stop-color="#a3cd39"/><stop offset="0.26" stop-color="#81c55f"/><stop offset="0.92" stop-color="#0fa8e0"/></linearGradient></defs><title>Sberbank logo</title><path class="a" d="M458.5,502.2c-5.71,0-7.73,3-7.73,5.87,0,4.1,3.54,4.94,6.71,5.68,2.2.53,4.1,1,4.1,2.55,0,.81-.47,2.14-3.66,2.14a11,11,0,0,1-6.09-2l-1.4,3.17a12.92,12.92,0,0,0,7.45,2.14c4.72,0,7.79-2.3,7.79-5.84,0-4-3.6-4.84-6.74-5.59-2.2-.53-4.1-1-4.1-2.52,0-2,2.51-2.27,3.63-2.27a7.08,7.08,0,0,1,3.48.71l3-2.24a12.9,12.9,0,0,0-6.49-1.86Zm49.77.31v19h4.1v-5.37h4.07l3.63,5.37,4.38,0-4.16-6.18a6.23,6.23,0,0,0,3.88-6c0-4.19-3.11-6.8-8.07-6.8h-7.82Zm87.78,0v19h4.1v-7.64h2.55l6.27,7.64h5.28l-8.38-9.81,7.33-9.16h-4.69l-6.09,8.13h-2.27v-8.13h-4.1Zm-105.94,0v19h14.35v-3.17H494.21V513.5H503v-3.17h-8.76v-4.63h6l4.29-3.17H490.11Zm69.21,0-8.17,19h4.16L557,517.7h8.69l1.55,3.82h4.32l-8-19h-4.19Zm14.81,0v19h3.94V509.1l9.41,12.42h3.88v-19h-3.91V515L578,502.54h-3.88Zm-104.67,0v19H479c4.72,0,7.33-1.83,7.33-5.12a4.63,4.63,0,0,0-3.32-4.69h0l-.19-.06.19-.09a4.54,4.54,0,0,0,2.42-4.13c0-3.07-2.61-4.87-7-4.87h-9Zm63.37,0v19h9.5c4.72,0,7.33-1.83,7.33-5.12a4.68,4.68,0,0,0-3.32-4.66l-.19-.09.19-.09a4.5,4.5,0,0,0,2.42-4.13c0-3.07-2.61-4.87-7-4.87h-9Zm-59.27,3.13h4.35c2.76,0,3.32,1.27,3.32,2.33,0,1.52-1.15,2.33-3.32,2.33h-4.35Zm67.72,0c2.73,0,3.32,1.27,3.32,2.33,0,1.52-1.15,2.33-3.32,2.33h-4.35v-4.63h4.35v0Zm-28.91,0H516c2.64,0,4.07,1.3,4.07,3.63S518.64,513,516,513h-3.63Zm49,1.18,3,7.61H558.2l3.17-7.61Zm-87.81,6.61h5.09c2.33,0,3.51.81,3.51,2.42s-1.15,2.42-3.51,2.42h-5.09Zm63.37,0H542c2.33,0,3.51.81,3.51,2.42s-1.15,2.42-3.51,2.42h-5.09Z" transform="translate(-409.75 -496.24)"/><path class="a" d="M438,502.39a16.85,16.85,0,0,1,1.89,3.14l-14.35,10.59-6-3.79v-4.53l6,3.76Z" transform="translate(-409.75 -496.24)"/><path class="b" d="M413.38,512a4.16,4.16,0,0,1,0-.62l-3.63-.19c0,.25,0,.53,0,.78a15.73,15.73,0,0,0,4.63,11.15l2.58-2.58a11.93,11.93,0,0,1-3.57-8.54Z" transform="translate(-409.75 -496.24)"/><path class="c" d="M425.49,499.9a4.16,4.16,0,0,1,.62,0l.19-3.63-.78,0a15.73,15.73,0,0,0-11.15,4.63l2.58,2.58a12,12,0,0,1,8.54-3.57Z" transform="translate(-409.75 -496.24)"/><path class="d" d="M425.49,524.13a4.16,4.16,0,0,1-.62,0l-.19,3.63.78,0a15.73,15.73,0,0,0,11.15-4.63L434,520.55a11.81,11.81,0,0,1-8.54,3.57Z" transform="translate(-409.75 -496.24)"/><path class="e" d="M432.32,502l3.07-2.27a15.77,15.77,0,0,0-9.91-3.51v3.63a12.21,12.21,0,0,1,6.83,2.14Z" transform="translate(-409.75 -496.24)"/><path class="a" d="M441.27,512a17.07,17.07,0,0,0-.25-2.83l-3.38,2.52V512a12,12,0,0,1-4,9l2.45,2.7A15.73,15.73,0,0,0,441.27,512Z" transform="translate(-409.75 -496.24)"/><path class="f" d="M425.49,524.13a12,12,0,0,1-9-4l-2.7,2.45a15.67,15.67,0,0,0,11.68,5.19Z" transform="translate(-409.75 -496.24)"/><path class="g" d="M417.39,503l-2.45-2.7A15.67,15.67,0,0,0,409.75,512h3.63a12.08,12.08,0,0,1,4-9Z" transform="translate(-409.75 -496.24)"/></svg>